<svg xmlns="http://www.w3.org/2000/svg" xmlns:xlink="http://www.w3.org/1999/xlink" id="Calque_1" x="0" y="0" version="1.1" viewBox="0 0 373.5 79.6" xml:space="preserve" style="enable-background:new 0 0 373.5 79.6"><style type="text/css">*{fill:#fff}</style><g><path d="M331.4,67.6c0-4.1,0-4.2,0.9-3.9c5.1,1.5,7.6,0.1,9.5-5.3c0.7-1.9,0.7-2.1,0-3.7c-0.4-0.9-0.9-2.1-1.1-2.5 c-0.4-0.9-0.8-2-1.6-3.9c-0.2-0.5-0.7-1.8-1.2-2.9c-0.5-1.1-0.9-2.1-0.9-2.3s-0.4-1.1-0.8-2.1c-0.5-0.9-0.8-1.9-0.8-2.1 c0-0.2-0.4-1.1-0.8-2.1c-0.5-0.9-0.8-1.9-0.9-2.2c0-0.3-0.3-1.1-0.7-1.8c-0.7-1.2-0.9-1.2-3.6-1.2h-2.8l-0.1,6.4 c-0.1,7.1,0.3,9.5,1.9,10.7c1.1,0.9,3.5,1.1,4,0.4c0.1-0.2,0.5-0.4,0.9-0.4c0.5,0,0.6,0.7,0.6,3.7c0,3.1-0.1,3.7-0.7,4 c-1.1,0.6-8.5,0.6-10.4,0c-2.1-0.6-4.3-2.4-5.2-4.4c-0.7-1.4-0.8-2.8-1-11l-0.2-9.5l-1.6-0.1c-2.6-0.2-2.7,0-2.1,2.5 c0.3,1.2,0.6,3.5,0.6,5.2l0.1,2.9h-10.5c-5.8,0-10.6,0.2-10.7,0.3c-0.4,0.6,0.6,3.2,1.6,4.4c1.2,1.4,4.6,2.7,6.9,2.7 c2.1,0,5.8-0.9,7.7-1.9c0.7-0.3,1.4-0.6,1.4-0.6c0,0,0.1,1.7,0.1,3.9v3.8l-1.8,0.7c-0.9,0.4-2.1,0.7-2.4,0.7s-0.8,0.2-0.9,0.3 c-0.3,0.6-9.9,0.6-11.8,0c-4.6-1.2-8.2-4.2-10-8.3c-1.2-2.7-1.7-7.7-1.1-11.3c1-6.3,4.6-10.6,11.1-13.1c1.5-0.6,8-0.7,9.8-0.1 c2.8,0.9,5.1,2.2,6.4,3.8c0.7,0.9,1.5,1.6,1.6,1.6c0.2,0,0.3-1.1,0.3-2.5v-2.4l2.6-0.1l2.5-0.1l0.2-3.5l0.2-3.5l2.1-0.6 c1.2-0.3,2.4-0.7,2.9-0.9c0.9-0.4,4.1-1.2,4.4-1.2c0.2,0,0.3,2.2,0.4,4.9l0.1,4.8l7.2,0.2l7.2,0.2l0.1,1c0.1,0.6,0.3,1.2,0.5,1.4 c0.2,0.2,0.4,0.7,0.4,1.1c0,0.4,0.5,2.3,1.2,4.3c0.6,2,1.6,5.1,2.1,6.7c0.5,1.7,1.2,3.7,1.4,4.5c0.2,0.8,0.5,1.7,0.6,2 c0.3,1.1,0.9,0.4,1.6-1.9c0.4-1.3,1-3.4,1.4-4.6c1.2-3.9,4-13,4.4-14.3c0.1-0.4,1.5-0.5,5.3-0.5c2.8,0,5.1,0.1,5.1,0.2 c0,0.1-0.2,0.5-0.4,0.9c-0.5,0.9-1,2.3-2.1,5.2c-0.5,1.4-1.1,2.8-1.2,3.3c-0.2,0.5-0.7,1.9-1.2,3.3c-0.5,1.4-1.1,2.8-1.2,3.3 c-0.2,0.5-0.7,1.9-1.2,3.3c-0.5,1.4-1.1,2.8-1.2,3.3c-0.2,0.5-0.7,1.9-1.2,3.3c-0.5,1.4-1.1,2.8-1.2,3.3c-0.2,0.5-0.7,1.9-1.2,3.3 c-2.1,5.7-4.2,9.3-6.8,11.6c-1.4,1.2-3,2.3-3.6,2.5c-0.6,0.1-1.2,0.4-1.4,0.6c-0.1,0.2-2.3,0.4-4.9,0.4h-4.7V67.6L331.4,67.6z M303.5,35.1c0-2.7-2.5-5.3-5.1-5.3c-2,0-4.6,1.8-5.6,3.9c-0.5,1-0.8,2.1-0.7,2.3c0.2,0.2,2.7,0.4,5.8,0.4h5.5V35.1z"/><path d="M21.8,71.1c-4-0.5-8.2-2.8-10-5.5c-0.6-0.9-1.4-2.8-1.9-4.2C9.1,59,9,57.9,9,41.4V24h1.4c1.4,0,1.4,0,1.4,1.6 c0,2.1,0.6,3,1.2,1.8c0.2-0.5,1.2-1.4,2.2-2.1c6.3-4.3,15.9-1.7,19.6,5.3c1.8,3.3,2.2,5.3,2.2,10.2c0,4.8-0.2,6-1.9,9.2 c-2.4,4.7-6.7,7-12.5,6.7c-3.9-0.2-6.3-1.2-8.6-3.6c-0.9-0.9-1.8-1.5-2-1.4c-0.6,0.4,0,6.9,0.9,9.3c2.5,6.6,11.3,9.2,19.2,5.5 c2.2-1,3.1-0.7,2.8,0.8c-0.3,1.4-0.4,1.5-3.2,2.6C29.6,70.9,24.6,71.4,21.8,71.1L21.8,71.1z M28.6,52.6c2.9-1.6,4.6-4.8,5.2-9.2 c0.9-7.4-1.7-13.8-6.5-16.1c-2.3-1.1-6.9-1.2-9.1-0.2c-1.9,0.8-3.9,2.9-5.1,5c-0.8,1.5-0.9,2.3-0.9,7.9c0,5.6,0.1,6.3,1,8.1 c1.4,2.8,4.1,5,7.2,5.8C22.3,54.3,26.8,53.7,28.6,52.6L28.6,52.6z"/><path d="M83.9,47.6l0.1-23.4h1.4h1.4l0.1,2.8l0.1,2.8l1.8-2c3.4-3.8,8.7-5.5,13.6-4.2c2.5,0.6,3.5,1.2,5.5,3c3.9,3.7,5.6,11,4,17.5 c-0.4,1.5-0.8,3-0.9,3.5c-0.4,1.5-3.2,5.3-5.2,6.8c-2.4,1.8-4.5,2.5-8,2.5c-3,0-4.9-0.5-6.9-1.8c-1.3-0.8-3.1-2.7-3.1-3.2 c0-0.2-0.2-0.3-0.4-0.3s-0.4,3.5-0.4,9.7v9.7h-1.6h-1.6L83.9,47.6L83.9,47.6z M102.7,53c1.6-0.8,3.9-3.4,4.9-5.5 c0.9-1.8,1.8-6.3,1.8-8.5c0-1.9-0.9-5.8-1.6-7.2c-2.1-3.9-4.9-5.5-9.2-5.5c-5.1,0.1-8.7,2.6-10.6,7.5c-1.2,3.2-1,11.2,0.3,14 c1.3,2.7,4.4,5.4,6.7,5.9C96.8,54.2,101.3,53.7,102.7,53z"/><path d="M60.3,56.1c-3.6-1.8-5.2-4.4-5.2-8.3c0-3.2,1.1-5.3,3.8-7.3c2.5-1.9,4.4-2.4,13.7-3.7l3.6-0.5l-0.3-2.5 C75.5,30.5,74.1,28,72,27c-3.1-1.5-8.3-0.6-12.1,2.1c-1.5,1-2.1,0.7-2.2-0.9c0-1.1,0.2-1.5,1.4-2.3c4.2-2.6,10.9-3.3,14.5-1.6 c2,1,4.4,3.5,4.4,4.6c0,0.4,0.2,0.9,0.5,1.2c0.4,0.4,0.5,3.8,0.6,13.2l0.2,12.7h-1.7h-1.7v-2.7v-2.6l-1.9,2.1 c-2.7,2.8-5.5,4.1-9.3,4.1C62.7,56.9,61.4,56.6,60.3,56.1z M70.1,53.1c1.6-0.8,3.6-2.9,4.7-4.9c0.7-1.2,0.9-2.6,1.1-5.3 c0.1-2,0.1-3.6-0.1-3.6c-0.2,0-1.5,0.2-2.8,0.4s-3.2,0.5-4.1,0.6c-7.8,1.2-10.5,3-10.5,7.3c0,3.2,1.8,5.6,4.5,6.2 C64.6,54.1,68.8,53.7,70.1,53.1z"/><path d="M160.4,56.4c-2.8-0.9-7.8-5.8-8.5-8.2c-1.1-4.4-1.3-6-1-9.4c0.7-7.8,5.2-13.3,12.4-15.1c2.2-0.6,6.7-0.4,9.1,0.5 c1.5,0.5,1.6,0.7,1.8,2.3c0.1,0.9,0,1.7-0.1,1.7c-0.1,0-1.1-0.4-2.2-0.9c-3-1.4-7.9-1.3-10.7,0.2c-2.4,1.2-4.6,3.6-6,6.4 c-0.8,1.6-0.9,2.5-0.9,6.6c0,4.3,0.1,4.9,1.1,7c1.1,2.4,3,4.3,5.3,5.6c2,1.1,8.5,1,10.9-0.2c1-0.5,2-0.9,2.2-0.9 c0.2,0,0.3,0.7,0.3,1.4c0,1.5,0,1.5-3.8,3C169.1,57.1,162.3,57,160.4,56.4z"/><path d="M213.4,56.1c-4.8-2.2-6.8-8.3-4.4-13.7c1.8-4.2,5.8-6,14-6.7c1.4-0.1,2.8-0.3,3.1-0.5c0.3-0.1,0.8-0.3,1-0.3 c0.2,0,0.5-0.6,0.5-1.2c0.2-2.2-2.4-4-5.9-4c-1.2,0-2.3,0.1-2.4,0.3c-0.2,0.2-0.8,0.4-1.4,0.4c-1.2,0.2-1.9,0.4-4.5,1.7 c-1,0.5-1.9,0.9-2,0.9s-0.2-1.6-0.2-3.5c0-3.8,0.4-4.6,2.3-4.7c0.5,0,1-0.2,1.2-0.4c0.1-0.2,0.9-0.4,1.6-0.4s1.5-0.2,1.6-0.4 c0.1-0.2,2.5-0.3,5.5-0.3c4.9,0.1,5.4,0.2,7.6,1.3c2.7,1.4,5,4,5.9,6.7c0.3,1.2,0.5,5.1,0.5,13.2v11.5h-4.9h-4.9v-1.9 c0-1-0.1-1.9-0.2-1.9s-0.8,0.6-1.4,1.4c-0.7,0.8-2.1,1.8-3.1,2.3C220.6,57.2,216,57.3,213.4,56.1z M224.5,48.9 c1.8-0.9,3.2-2.9,3.5-5.1c0.4-2.4-0.1-2.9-2.5-2.6c-1.1,0.1-2.2,0.3-2.5,0.4c-0.3,0.2-1.2,0.3-1.9,0.4c-3.4,0.5-4.5,5.1-1.6,6.7 C220.9,49.7,222.8,49.7,224.5,48.9z"/><path d="M39.5,40.1V24h1.6h1.6l0,2.8c0,2.7,0,2.8,0.7,1.7c2.4-3.5,5.3-5.3,8.3-5.3c2.4,0,3.2,0.6,3.2,2.3c0,1.3-0.1,1.4-1.1,1.2 c-3.3-0.7-4.8-0.3-6.8,1.5c-3.7,3.3-4.4,6.2-4.4,18.5v9.5h-1.6h-1.6C39.5,56.1,39.5,40.1,39.5,40.1z"/><path d="M115.1,32.5V8.8h1.6h1.6v10.1c0,5.6,0.1,10.1,0.3,10.1c0.2,0,0.6-0.5,0.9-1c2.5-4.2,9.9-6,14.8-3.7 c2.3,1.1,3.4,2.2,4.4,4.6c1.2,2.8,1.3,3.9,1.4,15.9v11.1l-1.4,0.1l-1.5,0.1V45.9c0-13.7-0.6-16.3-4-18.5c-2.1-1.4-6.6-1.4-8.9,0 c-2.9,1.6-4.2,3.1-5.4,6.6c-0.4,1-0.5,4.5-0.5,11.8v10.4h-1.6h-1.6L115.1,32.5L115.1,32.5z"/><path d="M144.7,40.1V24h1.6h1.6v16v16h-1.6h-1.6V40.1z"/><path d="M176,40.1V24h5.1h5.1v1.9c0,1,0.1,1.9,0.2,1.9c0.1,0,0.9-0.6,1.6-1.4c0.7-0.7,1.9-1.6,2.5-1.9c0.7-0.3,1.5-0.7,1.8-0.9 c0.3-0.2,2.1-0.3,3.9-0.4c5.1-0.1,8,1.5,10,5.7l1.1,2.3l0.2,12.5l0.2,12.4h-5.2h-5.2V45.7c0-10,0-10.5-0.9-12.2 c-0.7-1.4-1.3-2-2.6-2.4c-1-0.4-2.1-0.5-2.8-0.3c-1.7,0.4-3.9,2.6-4.4,4.3c-0.2,0.8-0.4,5.9-0.4,11.3v9.7h-5.1H176V40.1z"/><path d="M241,40.1V24H251h10.1l0.2,1.2c0.1,0.6,0.4,1.6,0.6,2.1c0.2,0.6,0.5,1.9,0.8,2.9c0.3,1,0.7,2.3,0.8,2.9 c0.2,0.6,0.5,1.9,0.8,2.9c0.3,1,0.7,2.3,0.8,2.9c0.2,0.6,0.5,1.9,0.8,2.9c0.3,1,0.7,2.3,0.9,2.8c0.2,0.5,0.4,1.5,0.4,2.1 c0,2.1,0.6,1.4,1.4-1.7c0.4-1.6,0.9-3.6,1.2-4.3c0.9-3.2,1.1-3.9,2.4-8.3c0.2-0.8,0.8-2.8,1.2-4.4c0.5-1.6,0.9-3.2,1.1-3.4 c0.3-0.5,10.2-0.6,10.6-0.2c0.1,0.1,0.1,0.6-0.1,0.9c-0.6,1.2-2.4,5.9-4.6,12c-0.5,1.2-1,2.6-1.2,3.1c-0.2,0.5-0.7,1.9-1.2,3.3 c-0.5,1.4-1.1,2.8-1.2,3.3c-0.2,0.5-0.7,1.9-1.2,3.3c-1,2.8-1.6,4.2-2.1,5.1c-0.2,0.5-1.4,0.7-6,0.7c-5.6,0.1-5.8,0.1-6.2-0.8 c-0.5-0.9-2-5.2-3.2-9c-0.3-1-0.8-2.2-1-2.7c-0.2-0.5-0.7-1.6-1-2.7c-1.2-3.6-2.2-6.2-2.4-6.5c-0.2-0.1-0.3-0.7-0.3-1.2 c0-0.5-0.2-1-0.4-1.2c-0.2-0.1-0.5-0.8-0.6-1.5c-0.1-0.7-0.4-1.2-0.7-1c-0.2,0.2-0.4,5-0.4,13.4v13.1h-5.1H241L241,40.1L241,40.1z"/><path d="M242.7,17.5c-0.7-0.4-1.6-1.4-2-2c-1.8-3.5,0.9-7,5.6-7c2,0,2.5,0.2,3.9,1.4c1.5,1.3,1.6,1.5,1.6,3.6c0,2-0.2,2.3-1.6,3.5 c-1.4,1.2-1.9,1.4-3.9,1.4C244.8,18.3,243.6,18,242.7,17.5L242.7,17.5z"/><path d="M144.9,15.6c-0.9-0.7-1.3-2.4-0.6-3.3c0.7-1,2.1-1.4,3.1-0.9c1.2,0.7,1.5,1.2,1.5,2.5C148.8,15.7,146.5,16.8,144.9,15.6 L144.9,15.6z"/></g></svg>