<svg xmlns="http://www.w3.org/2000/svg" width="1024" height="900" preserveAspectRatio="xMidYMid meet" version="1.0" viewBox="0 0 1024 900"><g id="layer101" fill="#e3411f" stroke="#fff"><path d="M445.3099 753.2194 c-5.4393 -1.6554 -14.6624 -5.6758 -20.1016 -8.9866 -24.1219 -14.1894 -32.6356 -31.2166 -34.5275 -67.8725 -1.4189 -29.7977 3.0744 -53.6831 13.7164 -74.9672 7.3312 -14.4259 7.3312 -17.9732 0.473 -11.588 -7.0947 6.1487 -16.7908 25.5409 -19.6286 39.4938 -2.3649 10.1691 -3.0744 11.8245 -4.7298 8.0406 -8.7501 -21.0476 -39.2573 -100.2716 -43.7506 -113.515 -7.8042 -21.9935 -15.6083 -52.9737 -14.4259 -56.521 1.4189 -4.4933 18.2097 23.8855 33.818 57.467 8.2771 17.2637 15.3718 32.1626 16.0813 32.8721 3.0744 2.8379 1.1824 -5.6758 -4.7298 -21.757 -12.5339 -35.2369 -28.3788 -62.6697 -50.1358 -87.5012 -14.4259 -16.5543 -21.0476 -29.5612 -30.9801 -61.9603 -4.0203 -13.0069 -9.4596 -25.7774 -11.8245 -27.9058 -3.0744 -2.8379 -11.588 -5.2028 -23.8855 -6.6217 -16.7908 -2.1284 -19.6286 -3.3109 -24.8314 -9.4596 -7.5677 -8.9866 -12.061 -6.1487 -14.1894 8.7501 -1.6554 9.6961 -2.1284 10.1691 -12.5339 13.0069 -29.5612 7.5677 -34.0545 9.9326 -52.5007 26.9598 -10.1691 9.4596 -30.0342 24.3584 -44.2236 33.345 -34.291 21.9935 -60.3049 41.3857 -59.1224 44.6965 0.473 1.4189 6.8582 4.7298 14.1894 7.3312 13.2434 4.4933 13.7164 4.4933 26.0139 0.2365 6.6217 -2.3649 27.6693 -13.4799 46.5885 -24.5949 37.1289 -21.9935 54.6291 -30.2707 70.4739 -32.6356 13.0069 -1.8919 16.0813 -6.8582 17.9732 -27.9058 1.6554 -20.8111 4.0203 -23.176 17.9732 -20.1016 5.9122 1.4189 16.3178 1.8919 22.9395 1.4189 l12.5339 -1.4189 -4.2568 5.6758 c-4.9663 7.0947 -4.7298 7.0947 -18.2097 1.1824 -19.8651 -8.5136 -21.9935 -5.4393 -11.588 16.5543 15.6083 32.8721 0.473 50.3723 -50.3723 58.4129 -15.6083 2.3649 -35.4734 8.2771 -60.0684 17.5002 -49.8993 18.4462 -54.3926 19.3921 -85.6092 18.2097 -27.4328 -0.946 -35.2369 -3.3109 -39.7303 -11.588 -5.6758 -10.642 18.4462 -34.5275 66.4536 -65.5076 14.8988 -9.6961 34.764 -24.8314 43.7506 -33.5815 23.4125 -22.9395 57.7035 -47.7709 84.1903 -61.4873 23.649 -12.061 42.0951 -26.9598 52.0277 -41.1492 4.9663 -7.3312 6.6217 -8.2771 12.7704 -7.0947 6.8582 1.1824 7.0947 0.946 7.3312 -8.9866 0.2365 -5.6758 2.8379 -15.3718 5.6758 -21.9935 4.0203 -8.5136 5.4393 -15.8448 5.2028 -26.0139 -0.2365 -24.1219 1.8919 -28.8517 26.7233 -53.2102 17.0273 -16.5543 22.23 -23.176 21.0476 -26.4868 -2.8379 -9.2231 2.1284 -19.1557 18.2097 -36.1829 23.649 -24.8314 32.6356 -30.5072 46.1155 -28.8517 10.1691 0.946 12.7704 2.8379 33.1085 23.176 21.9935 21.757 25.5409 28.6152 19.3921 34.764 -4.4933 4.4933 -11.3515 3.3109 -18.9192 -3.0744 -11.115 -9.4596 -20.8111 -6.6217 -20.8111 5.6758 0 7.3312 17.7367 26.2503 24.8314 26.2503 5.4393 0 41.3857 -32.6356 41.3857 -37.6018 0 -1.6554 -10.4055 -13.9529 -23.4125 -27.1963 -33.1085 -34.0545 -33.345 -39.9667 -4.2568 -69.5279 16.7908 -16.7908 23.649 -20.1016 29.5612 -14.1894 5.4393 5.4393 2.8379 11.8245 -11.3515 26.4868 -19.6286 20.5746 -19.6286 21.0476 7.8042 46.1155 15.6083 14.4259 15.8448 14.4259 22.703 11.115 8.0406 -4.2568 21.5206 -19.1557 21.5206 -23.8855 0 -4.4933 -9.2231 -13.0069 -14.1894 -13.0069 -2.1284 0 -6.3852 2.6014 -9.4596 5.9122 -9.6961 10.1691 -21.2841 7.0947 -21.2841 -5.6758 0 -4.2568 38.0748 -43.0411 46.5885 -47.2979 8.9866 -4.4933 20.5746 -3.0744 30.5072 4.0203 12.2975 8.9866 40.2032 39.0208 42.3316 45.406 3.5473 11.115 -0.946 21.0476 -17.9732 38.7843 -8.9866 9.4596 -16.3178 19.3921 -16.3178 21.757 0 2.3649 7.8042 12.061 17.0273 21.5206 21.0476 21.2841 25.3044 21.9935 39.4938 6.6217 10.8785 -11.8245 12.061 -18.2097 4.4933 -23.4125 -7.0947 -5.2028 -9.9326 -4.7298 -17.9732 2.1284 -7.5677 6.3852 -14.4259 7.5677 -18.9192 3.0744 -6.1487 -6.1487 -2.6014 -12.7704 16.7908 -31.6896 23.649 -23.4125 28.8517 -26.9598 39.0208 -26.9598 11.8245 0 18.4462 4.4933 41.3857 27.9058 19.6286 20.1016 20.5746 21.757 20.5746 31.4531 0 10.1691 0.946 11.3515 23.4125 34.291 24.5949 24.8314 26.4868 28.3788 23.176 45.1695 -2.1284 10.1691 -1.1824 15.1353 7.5677 39.2573 3.0744 8.5136 4.4933 15.8448 3.5473 19.8651 -1.6554 5.9122 -1.4189 6.1487 6.3852 4.4933 7.3312 -1.1824 8.5136 -0.473 13.7164 7.0947 9.9326 14.1894 28.3788 29.0882 52.0277 41.1492 26.4868 13.7164 60.7778 38.5478 84.1903 61.2508 9.2231 8.9866 30.7436 25.3044 48.0074 36.6559 29.5612 19.3921 55.8115 41.6222 61.4873 52.5007 1.8919 3.5473 1.8919 6.3852 -0.2365 10.642 -4.4933 8.5136 -21.0476 12.061 -53.6831 10.8785 -26.9598 -0.7095 -27.6693 -0.946 -68.582 -16.3178 -26.9598 -10.1691 -48.0074 -16.5543 -60.3049 -18.4462 -35.9464 -5.2028 -52.7372 -13.4799 -57.94 -29.3247 -2.6014 -8.2771 -2.6014 -8.0406 8.5136 -37.3654 2.3649 -6.1487 3.5473 -11.8245 2.6014 -12.7704 -1.4189 -1.4189 -17.7367 2.8379 -29.0882 7.5677 -1.4189 0.7095 -4.2568 -1.4189 -6.3852 -4.7298 l-3.7838 -5.9122 12.2975 1.4189 c6.6217 0.473 17.0273 0 22.9395 -1.4189 13.9529 -3.0744 16.3178 -0.7095 17.9732 20.1016 1.8919 21.0476 4.9663 26.0139 17.9732 27.9058 15.8448 2.3649 33.345 10.642 70.4739 32.6356 18.9192 11.115 39.7303 22.23 46.5885 24.5949 11.588 4.0203 12.7704 4.0203 25.3044 0.2365 22.4665 -7.0947 23.176 -6.1487 -35.2369 -45.406 -21.9935 -14.6624 -47.7709 -33.818 -57.2305 -42.0951 -16.5543 -15.1353 -20.8111 -17.2637 -49.6628 -25.0679 -9.2231 -2.6014 -9.9326 -3.3109 -11.588 -13.2434 -2.1284 -15.1353 -6.3852 -17.7367 -14.6624 -8.7501 -5.6758 6.1487 -8.9866 7.3312 -23.176 8.7501 -26.7233 2.8379 -27.4328 3.5473 -38.7843 38.7843 -10.1691 31.6896 -15.3718 41.3857 -35.7099 65.2711 -18.9192 22.4665 -49.4263 83.4808 -49.4263 98.8527 0 7.0947 1.4189 4.7298 17.5002 -29.3247 14.6624 -31.4531 31.4531 -60.5413 33.5815 -58.1764 3.5473 3.5473 -14.1894 58.1764 -38.7843 119.9002 -8.9866 22.703 -17.5002 44.6965 -18.6827 48.4804 l-2.6014 7.0947 -1.6554 -7.0947 c-4.4933 -19.3921 -9.6961 -30.9801 -17.2637 -39.4938 -4.4933 -4.9663 -8.5136 -8.7501 -8.9866 -8.2771 -0.473 0.2365 2.3649 6.6217 6.1487 14.1894 10.642 21.2841 15.1353 45.406 13.4799 74.4942 -0.946 22.23 -2.1284 26.4868 -9.2231 40.4397 -6.1487 12.5339 -10.4055 17.2637 -20.8111 24.3584 -21.0476 13.9529 -31.6896 15.8448 -92.2309 15.6083 -36.1829 0 -56.521 -0.946 -63.1427 -3.0744z m42.0951 -69.5279 c-2.8379 -3.7838 -11.8245 -12.2975 -20.1016 -19.1557 -9.9326 -7.5677 -17.0273 -15.6083 -20.3381 -22.4665 -4.7298 -9.9326 -9.9326 -13.2434 -12.7704 -8.5136 -2.6014 3.7838 17.5002 40.2032 25.3044 46.1155 9.2231 7.0947 30.9801 15.8448 31.9261 13.0069 0.473 -1.1824 -1.4189 -5.2028 -4.0203 -8.9866z m74.7307 -4.0203 c9.6961 -7.3312 28.3788 -43.5141 23.8855 -46.352 -5.4393 -3.3109 -8.5136 -1.8919 -10.1691 4.7298 -0.946 3.7838 -10.642 15.1353 -23.8855 27.6693 -12.2975 11.8245 -22.23 23.176 -22.23 25.5409 0 3.5473 0.946 3.5473 12.5339 -0.946 6.6217 -2.6014 15.6083 -7.3312 19.8651 -10.642z m-150.6439 -176.1848 c10.642 -40.2032 16.3178 -80.643 13.0069 -93.6499 -1.6554 -6.1487 -1.8919 -6.1487 -3.5473 -1.8919 -1.1824 2.6014 -2.1284 7.8042 -2.1284 11.588 -0.2365 6.6217 -0.473 6.8582 -3.7838 2.3649 -3.0744 -4.0203 -3.3109 -1.8919 -3.5473 21.757 0 22.4665 -3.7838 53.9196 -8.7501 73.7848 -0.7095 2.8379 -0.2365 5.2028 1.1824 5.2028 1.1824 0 4.7298 -8.5136 7.5677 -19.1557z m207.1649 15.1353 c-4.2568 -14.1894 -8.5136 -50.1358 -8.5136 -73.7848 -0.2365 -23.649 -0.7095 -26.7233 -3.3109 -23.176 -2.8379 3.7838 -3.3109 3.0744 -4.7298 -6.6217 -1.1824 -6.6217 -2.6014 -10.1691 -4.2568 -9.2231 -3.0744 2.1284 -0.7095 40.4397 4.0203 62.9062 5.6758 27.6693 13.4799 53.9196 15.8448 53.9196 1.1824 0 1.6554 -1.8919 0.946 -4.0203z m-479.128 -149.6979 c0 -4.2568 -7.3312 -2.3649 -15.6083 3.7838 -11.8245 8.9866 -9.9326 11.3515 3.7838 4.4933 6.6217 -3.3109 11.8245 -7.0947 11.8245 -8.2771z m765.9899 11.115 c-0.473 -0.473 -4.4933 -3.5473 -8.7501 -7.0947 -8.0406 -6.3852 -14.6624 -8.2771 -14.6624 -4.0203 0 2.3649 21.757 14.4259 23.4125 12.7704 0.473 -0.473 0.473 -1.1824 0 -1.6554z m-565.9196 -17.0273 c7.5677 -3.0744 8.2771 -4.2568 6.8582 -9.9326 -2.1284 -8.7501 -2.1284 -8.7501 -10.8785 -5.6758 -4.2568 1.4189 -12.2975 2.6014 -18.2097 2.6014 l-10.642 0 5.6758 6.1487 c5.2028 5.6758 12.2975 9.9326 17.0273 10.1691 0.946 0.2365 5.6758 -1.4189 10.1691 -3.3109z m368.6873 -6.1487 l7.0947 -6.8582 -12.2975 0 c-6.6217 0 -15.1353 -1.1824 -18.6827 -2.3649 -4.9663 -1.8919 -6.8582 -1.8919 -8.5136 0.473 -3.7838 6.3852 -1.8919 11.588 5.9122 14.8988 9.6961 4.4933 17.7367 2.6014 26.4868 -6.1487z m-546.764 1.4189 c13.0069 -8.9866 10.642 -11.588 -4.2568 -4.2568 -7.0947 3.5473 -13.0069 7.3312 -13.0069 8.2771 0 3.7838 8.5136 1.6554 17.2637 -4.0203z m715.8541 4.7298 c0 -1.8919 -24.1219 -13.4799 -25.3044 -12.2975 -1.6554 1.8919 16.5543 13.4799 21.0476 13.4799 2.3649 0 4.2568 -0.473 4.2568 -1.1824z m-556.2236 -27.6693 c4.4933 -1.1824 9.4596 -1.6554 11.3515 -0.946 10.4055 4.0203 -7.8042 -20.3381 -20.1016 -26.9598 -5.2028 -2.6014 -6.6217 -0.2365 -2.6014 3.7838 1.6554 1.6554 1.4189 5.2028 -1.1824 11.115 -4.9663 12.061 -4.7298 19.1557 0.7095 17.0273 2.1284 -0.946 7.5677 -2.8379 11.8245 -4.0203z m395.4106 1.6554 c0 -1.8919 -1.6554 -7.8042 -3.7838 -13.0069 -3.0744 -7.8042 -3.3109 -10.1691 -0.946 -13.0069 4.9663 -5.9122 0.7095 -6.8582 -6.8582 -1.4189 -14.6624 10.4055 -24.8314 27.1963 -14.8988 24.8314 2.1284 -0.7095 8.2771 0.2365 13.4799 2.1284 12.5339 4.4933 13.0069 4.4933 13.0069 0.473z m-310.7473 -131.7247 c9.6961 -9.2231 17.5002 -18.4462 17.5002 -20.3381 0 -1.8919 -8.2771 -12.061 -18.6827 -22.703 -10.1691 -10.4055 -19.8651 -21.5206 -21.2841 -24.3584 -5.9122 -11.3515 -0.946 -26.4868 12.061 -36.6559 5.4393 -4.2568 5.4393 -4.4933 0.946 -7.8042 -8.0406 -6.1487 -13.2434 -4.0203 -28.8517 11.115 -11.115 10.642 -15.1353 16.0813 -15.1353 20.5746 0 4.4933 6.6217 12.7704 24.8314 31.6896 13.7164 14.1894 24.8314 26.7233 24.8314 27.9058 0 1.4189 -1.1824 4.4933 -2.3649 7.0947 -3.0744 5.6758 -14.6624 6.1487 -19.1557 0.7095 -8.0406 -9.6961 -23.4125 -8.0406 -23.4125 2.6014 0 5.9122 20.8111 27.1963 26.7233 27.1963 2.6014 0 12.2975 -7.5677 21.9935 -17.0273z m250.206 5.2028 c11.8245 -12.7704 12.2975 -13.7164 8.0406 -19.3921 -5.4393 -6.8582 -12.2975 -7.0947 -18.4462 -0.7095 -8.9866 9.4596 -23.649 6.8582 -23.649 -4.2568 0 -2.6014 10.8785 -15.6083 24.8314 -30.0342 13.7164 -13.9529 24.8314 -27.4328 24.8314 -29.7977 0 -2.1284 -7.3312 -11.3515 -16.0813 -20.3381 -12.061 -11.8245 -17.9732 -16.0813 -22.703 -16.0813 -9.4596 0 -10.4055 6.1487 -1.8919 14.8988 17.2637 17.7367 14.8988 28.6152 -11.3515 54.8656 -11.588 11.588 -18.9192 20.8111 -18.9192 23.8855 0 6.1487 33.1085 38.7843 39.7303 38.7843 2.3649 0 9.4596 -5.2028 15.6083 -11.8245z m-120.1367 -11.3515 c11.588 -8.5136 29.3247 -27.6693 29.3247 -31.9261 0 -1.6554 -4.9663 -7.8042 -10.8785 -13.4799 -17.0273 -16.3178 -24.5949 -27.9058 -24.5949 -37.1289 0 -11.115 2.8379 -15.8448 20.3381 -34.291 8.2771 -8.5136 15.1353 -16.7908 15.1353 -18.4462 0 -1.6554 -7.5677 -10.642 -17.0273 -20.3381 -17.2637 -17.9732 -24.3584 -21.0476 -30.2707 -13.9529 -2.3649 3.0744 -1.8919 4.4933 3.3109 8.5136 7.5677 5.9122 13.2434 16.3178 13.2434 24.5949 0 9.6961 -5.6758 18.2097 -23.4125 35.0005 -15.3718 14.4259 -20.5746 22.9395 -14.4259 22.9395 3.0744 0 42.0951 37.3654 45.406 43.2776 3.0744 5.9122 -3.5473 15.8448 -10.4055 15.8448 -2.8379 0 -8.2771 -2.8379 -11.8245 -6.3852 -5.6758 -5.4393 -7.5677 -5.9122 -13.2434 -4.0203 -7.0947 2.6014 -9.4596 9.6961 -5.2028 17.5002 2.6014 4.7298 20.3381 18.9192 23.649 18.9192 0.946 0 5.9122 -3.0744 10.8785 -6.6217z"/></g><g id="layer102" fill="#fff" stroke="#fff"><path d="M462.5737 816.8351 c-20.8111 -10.8785 -46.5885 -43.2776 -53.4467 -67.163 l-2.1284 -7.5677 6.1487 4.0203 c15.6083 10.1691 21.9935 13.0069 37.3654 16.3178 9.2231 1.8919 24.1219 6.8582 33.5815 10.642 9.6961 4.2568 21.0476 7.3312 26.7233 7.3312 5.6758 0 17.0273 -3.0744 26.7233 -7.3312 9.4596 -3.7838 24.3584 -8.7501 33.5815 -10.642 15.3718 -3.3109 21.757 -6.1487 37.6018 -16.3178 l6.3852 -4.2568 -2.3649 6.1487 c-11.588 30.2707 -33.1085 56.994 -54.8656 68.109 -13.4799 6.6217 -14.6624 6.8582 -48.7169 6.8582 -32.8721 -0.2365 -35.7099 -0.7095 -46.5885 -6.1487z"/><path d="M445.3099 753.2194 c-5.4393 -1.6554 -14.6624 -5.6758 -20.1016 -8.9866 -24.1219 -14.1894 -32.6356 -31.2166 -34.5275 -67.8725 -1.4189 -29.7977 3.0744 -53.6831 13.7164 -74.9672 7.3312 -14.4259 7.3312 -17.9732 0.473 -11.588 -7.0947 6.1487 -16.7908 25.5409 -19.6286 39.4938 -2.3649 10.1691 -3.0744 11.8245 -4.7298 8.0406 -8.7501 -21.0476 -39.2573 -100.2716 -43.7506 -113.515 -7.8042 -21.9935 -15.6083 -52.9737 -14.4259 -56.521 1.4189 -4.4933 18.2097 23.8855 33.818 57.467 8.2771 17.2637 15.3718 32.1626 16.0813 32.8721 3.0744 2.8379 1.1824 -5.6758 -4.7298 -21.757 -12.5339 -35.2369 -28.3788 -62.6697 -50.1358 -87.5012 -14.4259 -16.5543 -21.0476 -29.5612 -30.9801 -61.9603 -4.0203 -13.0069 -9.4596 -25.7774 -11.8245 -27.9058 -3.0744 -2.8379 -11.588 -5.2028 -23.8855 -6.6217 -16.7908 -2.1284 -19.6286 -3.3109 -24.8314 -9.4596 -7.5677 -8.9866 -12.061 -6.1487 -14.1894 8.7501 -1.6554 9.6961 -2.1284 10.1691 -12.5339 13.0069 -29.5612 7.5677 -34.0545 9.9326 -52.5007 26.9598 -10.1691 9.4596 -30.0342 24.3584 -44.2236 33.345 -34.291 21.9935 -60.3049 41.3857 -59.1224 44.6965 0.473 1.4189 6.8582 4.7298 14.1894 7.3312 13.2434 4.4933 13.7164 4.4933 26.0139 0.2365 6.6217 -2.3649 27.6693 -13.4799 46.5885 -24.5949 37.1289 -21.9935 54.6291 -30.2707 70.4739 -32.6356 13.0069 -1.8919 16.0813 -6.8582 17.9732 -27.9058 1.6554 -20.8111 4.0203 -23.176 17.9732 -20.1016 5.9122 1.4189 16.3178 1.8919 22.9395 1.4189 l12.5339 -1.4189 -4.2568 5.6758 c-4.9663 7.0947 -4.7298 7.0947 -18.2097 1.1824 -19.8651 -8.5136 -21.9935 -5.4393 -11.588 16.5543 15.6083 32.8721 0.473 50.3723 -50.3723 58.4129 -15.6083 2.3649 -35.4734 8.2771 -60.0684 17.5002 -49.8993 18.4462 -54.3926 19.3921 -85.6092 18.2097 -27.4328 -0.946 -35.2369 -3.3109 -39.7303 -11.588 -5.6758 -10.642 18.4462 -34.5275 66.4536 -65.5076 14.8988 -9.6961 34.764 -24.8314 43.7506 -33.5815 23.4125 -22.9395 57.7035 -47.7709 84.1903 -61.4873 23.649 -12.061 42.0951 -26.9598 52.0277 -41.1492 4.9663 -7.3312 6.6217 -8.2771 12.7704 -7.0947 6.8582 1.1824 7.0947 0.946 7.3312 -8.9866 0.2365 -5.6758 2.8379 -15.3718 5.6758 -21.9935 4.0203 -8.5136 5.4393 -15.8448 5.2028 -26.0139 -0.2365 -24.1219 1.8919 -28.8517 26.7233 -53.2102 17.0273 -16.5543 22.23 -23.176 21.0476 -26.4868 -2.8379 -9.2231 2.1284 -19.1557 18.2097 -36.1829 23.649 -24.8314 32.6356 -30.5072 46.1155 -28.8517 10.1691 0.946 12.7704 2.8379 33.1085 23.176 21.9935 21.757 25.5409 28.6152 19.3921 34.764 -4.4933 4.4933 -11.3515 3.3109 -18.9192 -3.0744 -11.115 -9.4596 -20.8111 -6.6217 -20.8111 5.6758 0 7.3312 17.7367 26.2503 24.8314 26.2503 5.4393 0 41.3857 -32.6356 41.3857 -37.6018 0 -1.6554 -10.4055 -13.9529 -23.4125 -27.1963 -33.1085 -34.0545 -33.345 -39.9667 -4.2568 -69.5279 16.7908 -16.7908 23.649 -20.1016 29.5612 -14.1894 5.4393 5.4393 2.8379 11.8245 -11.3515 26.4868 -19.6286 20.5746 -19.6286 21.0476 7.8042 46.1155 15.6083 14.4259 15.8448 14.4259 22.703 11.115 8.0406 -4.2568 21.5206 -19.1557 21.5206 -23.8855 0 -4.4933 -9.2231 -13.0069 -14.1894 -13.0069 -2.1284 0 -6.3852 2.6014 -9.4596 5.9122 -9.6961 10.1691 -21.2841 7.0947 -21.2841 -5.6758 0 -4.2568 38.0748 -43.0411 46.5885 -47.2979 8.9866 -4.4933 20.5746 -3.0744 30.5072 4.0203 12.2975 8.9866 40.2032 39.0208 42.3316 45.406 3.5473 11.115 -0.946 21.0476 -17.9732 38.7843 -8.9866 9.4596 -16.3178 19.3921 -16.3178 21.757 0 2.3649 7.8042 12.061 17.0273 21.5206 21.0476 21.2841 25.3044 21.9935 39.4938 6.6217 10.8785 -11.8245 12.061 -18.2097 4.4933 -23.4125 -7.0947 -5.2028 -9.9326 -4.7298 -17.9732 2.1284 -7.5677 6.3852 -14.4259 7.5677 -18.9192 3.0744 -6.1487 -6.1487 -2.6014 -12.7704 16.7908 -31.6896 23.649 -23.4125 28.8517 -26.9598 39.0208 -26.9598 11.8245 0 18.4462 4.4933 41.3857 27.9058 19.6286 20.1016 20.5746 21.757 20.5746 31.4531 0 10.1691 0.946 11.3515 23.4125 34.291 24.5949 24.8314 26.4868 28.3788 23.176 45.1695 -2.1284 10.1691 -1.1824 15.1353 7.5677 39.2573 3.0744 8.5136 4.4933 15.8448 3.5473 19.8651 -1.6554 5.9122 -1.4189 6.1487 6.3852 4.4933 7.3312 -1.1824 8.5136 -0.473 13.7164 7.0947 9.9326 14.1894 28.3788 29.0882 52.0277 41.1492 26.4868 13.7164 60.7778 38.5478 84.1903 61.2508 9.2231 8.9866 30.7436 25.3044 48.0074 36.6559 29.5612 19.3921 55.8115 41.6222 61.4873 52.5007 1.8919 3.5473 1.8919 6.3852 -0.2365 10.642 -4.4933 8.5136 -21.0476 12.061 -53.6831 10.8785 -26.9598 -0.7095 -27.6693 -0.946 -68.582 -16.3178 -26.9598 -10.1691 -48.0074 -16.5543 -60.3049 -18.4462 -35.9464 -5.2028 -52.7372 -13.4799 -57.94 -29.3247 -2.6014 -8.2771 -2.6014 -8.0406 8.5136 -37.3654 2.3649 -6.1487 3.5473 -11.8245 2.6014 -12.7704 -1.4189 -1.4189 -17.7367 2.8379 -29.0882 7.5677 -1.4189 0.7095 -4.2568 -1.4189 -6.3852 -4.7298 l-3.7838 -5.9122 12.2975 1.4189 c6.6217 0.473 17.0273 0 22.9395 -1.4189 13.9529 -3.0744 16.3178 -0.7095 17.9732 20.1016 1.8919 21.0476 4.9663 26.0139 17.9732 27.9058 15.8448 2.3649 33.345 10.642 70.4739 32.6356 18.9192 11.115 39.7303 22.23 46.5885 24.5949 11.588 4.0203 12.7704 4.0203 25.3044 0.2365 22.4665 -7.0947 23.176 -6.1487 -35.2369 -45.406 -21.9935 -14.6624 -47.7709 -33.818 -57.2305 -42.0951 -16.5543 -15.1353 -20.8111 -17.2637 -49.6628 -25.0679 -9.2231 -2.6014 -9.9326 -3.3109 -11.588 -13.2434 -2.1284 -15.1353 -6.3852 -17.7367 -14.6624 -8.7501 -5.6758 6.1487 -8.9866 7.3312 -23.176 8.7501 -26.7233 2.8379 -27.4328 3.5473 -38.7843 38.7843 -10.1691 31.6896 -15.3718 41.3857 -35.7099 65.2711 -18.9192 22.4665 -49.4263 83.4808 -49.4263 98.8527 0 7.0947 1.4189 4.7298 17.5002 -29.3247 14.6624 -31.4531 31.4531 -60.5413 33.5815 -58.1764 3.5473 3.5473 -14.1894 58.1764 -38.7843 119.9002 -8.9866 22.703 -17.5002 44.6965 -18.6827 48.4804 l-2.6014 7.0947 -1.6554 -7.0947 c-4.4933 -19.3921 -9.6961 -30.9801 -17.2637 -39.4938 -4.4933 -4.9663 -8.5136 -8.7501 -8.9866 -8.2771 -0.473 0.2365 2.3649 6.6217 6.1487 14.1894 10.642 21.2841 15.1353 45.406 13.4799 74.4942 -0.946 22.23 -2.1284 26.4868 -9.2231 40.4397 -6.1487 12.5339 -10.4055 17.2637 -20.8111 24.3584 -21.0476 13.9529 -31.6896 15.8448 -92.2309 15.6083 -36.1829 0 -56.521 -0.946 -63.1427 -3.0744z m42.0951 -69.5279 c-2.8379 -3.7838 -11.8245 -12.2975 -20.1016 -19.1557 -9.9326 -7.5677 -17.0273 -15.6083 -20.3381 -22.4665 -4.7298 -9.9326 -9.9326 -13.2434 -12.7704 -8.5136 -2.6014 3.7838 17.5002 40.2032 25.3044 46.1155 9.2231 7.0947 30.9801 15.8448 31.9261 13.0069 0.473 -1.1824 -1.4189 -5.2028 -4.0203 -8.9866z m74.7307 -4.0203 c9.6961 -7.3312 28.3788 -43.5141 23.8855 -46.352 -5.4393 -3.3109 -8.5136 -1.8919 -10.1691 4.7298 -0.946 3.7838 -10.642 15.1353 -23.8855 27.6693 -12.2975 11.8245 -22.23 23.176 -22.23 25.5409 0 3.5473 0.946 3.5473 12.5339 -0.946 6.6217 -2.6014 15.6083 -7.3312 19.8651 -10.642z m-150.6439 -176.1848 c10.642 -40.2032 16.3178 -80.643 13.0069 -93.6499 -1.6554 -6.1487 -1.8919 -6.1487 -3.5473 -1.8919 -1.1824 2.6014 -2.1284 7.8042 -2.1284 11.588 -0.2365 6.6217 -0.473 6.8582 -3.7838 2.3649 -3.0744 -4.0203 -3.3109 -1.8919 -3.5473 21.757 0 22.4665 -3.7838 53.9196 -8.7501 73.7848 -0.7095 2.8379 -0.2365 5.2028 1.1824 5.2028 1.1824 0 4.7298 -8.5136 7.5677 -19.1557z m207.1649 15.1353 c-4.2568 -14.1894 -8.5136 -50.1358 -8.5136 -73.7848 -0.2365 -23.649 -0.7095 -26.7233 -3.3109 -23.176 -2.8379 3.7838 -3.3109 3.0744 -4.7298 -6.6217 -1.1824 -6.6217 -2.6014 -10.1691 -4.2568 -9.2231 -3.0744 2.1284 -0.7095 40.4397 4.0203 62.9062 5.6758 27.6693 13.4799 53.9196 15.8448 53.9196 1.1824 0 1.6554 -1.8919 0.946 -4.0203z m-479.128 -149.6979 c0 -4.2568 -7.3312 -2.3649 -15.6083 3.7838 -11.8245 8.9866 -9.9326 11.3515 3.7838 4.4933 6.6217 -3.3109 11.8245 -7.0947 11.8245 -8.2771z m765.9899 11.115 c-0.473 -0.473 -4.4933 -3.5473 -8.7501 -7.0947 -8.0406 -6.3852 -14.6624 -8.2771 -14.6624 -4.0203 0 2.3649 21.757 14.4259 23.4125 12.7704 0.473 -0.473 0.473 -1.1824 0 -1.6554z m-565.9196 -17.0273 c7.5677 -3.0744 8.2771 -4.2568 6.8582 -9.9326 -2.1284 -8.7501 -2.1284 -8.7501 -10.8785 -5.6758 -4.2568 1.4189 -12.2975 2.6014 -18.2097 2.6014 l-10.642 0 5.6758 6.1487 c5.2028 5.6758 12.2975 9.9326 17.0273 10.1691 0.946 0.2365 5.6758 -1.4189 10.1691 -3.3109z m368.6873 -6.1487 l7.0947 -6.8582 -12.2975 0 c-6.6217 0 -15.1353 -1.1824 -18.6827 -2.3649 -4.9663 -1.8919 -6.8582 -1.8919 -8.5136 0.473 -3.7838 6.3852 -1.8919 11.588 5.9122 14.8988 9.6961 4.4933 17.7367 2.6014 26.4868 -6.1487z m-546.764 1.4189 c13.0069 -8.9866 10.642 -11.588 -4.2568 -4.2568 -7.0947 3.5473 -13.0069 7.3312 -13.0069 8.2771 0 3.7838 8.5136 1.6554 17.2637 -4.0203z m715.8541 4.7298 c0 -1.8919 -24.1219 -13.4799 -25.3044 -12.2975 -1.6554 1.8919 16.5543 13.4799 21.0476 13.4799 2.3649 0 4.2568 -0.473 4.2568 -1.1824z m-556.2236 -27.6693 c4.4933 -1.1824 9.4596 -1.6554 11.3515 -0.946 10.4055 4.0203 -7.8042 -20.3381 -20.1016 -26.9598 -5.2028 -2.6014 -6.6217 -0.2365 -2.6014 3.7838 1.6554 1.6554 1.4189 5.2028 -1.1824 11.115 -4.9663 12.061 -4.7298 19.1557 0.7095 17.0273 2.1284 -0.946 7.5677 -2.8379 11.8245 -4.0203z m395.4106 1.6554 c0 -1.8919 -1.6554 -7.8042 -3.7838 -13.0069 -3.0744 -7.8042 -3.3109 -10.1691 -0.946 -13.0069 4.9663 -5.9122 0.7095 -6.8582 -6.8582 -1.4189 -14.6624 10.4055 -24.8314 27.1963 -14.8988 24.8314 2.1284 -0.7095 8.2771 0.2365 13.4799 2.1284 12.5339 4.4933 13.0069 4.4933 13.0069 0.473z m-197.7053 -83.0079 c4.4933 -4.2568 4.9663 -17.7367 0.946 -21.757 -1.6554 -1.6554 -5.6758 -2.8379 -8.9866 -2.8379 -8.2771 0 -11.8245 4.0203 -11.8245 13.2434 0 8.5136 5.2028 15.1353 11.8245 15.1353 2.3649 0 6.1487 -1.6554 8.0406 -3.7838z m-113.042 -48.7169 c9.6961 -9.2231 17.5002 -18.4462 17.5002 -20.3381 0 -1.8919 -8.2771 -12.061 -18.6827 -22.703 -10.1691 -10.4055 -19.8651 -21.5206 -21.2841 -24.3584 -5.9122 -11.3515 -0.946 -26.4868 12.061 -36.6559 5.4393 -4.2568 5.4393 -4.4933 0.946 -7.8042 -8.0406 -6.1487 -13.2434 -4.0203 -28.8517 11.115 -11.115 10.642 -15.1353 16.0813 -15.1353 20.5746 0 4.4933 6.6217 12.7704 24.8314 31.6896 13.7164 14.1894 24.8314 26.7233 24.8314 27.9058 0 1.4189 -1.1824 4.4933 -2.3649 7.0947 -3.0744 5.6758 -14.6624 6.1487 -19.1557 0.7095 -8.0406 -9.6961 -23.4125 -8.0406 -23.4125 2.6014 0 5.9122 20.8111 27.1963 26.7233 27.1963 2.6014 0 12.2975 -7.5677 21.9935 -17.0273z m250.206 5.2028 c11.8245 -12.7704 12.2975 -13.7164 8.0406 -19.3921 -5.4393 -6.8582 -12.2975 -7.0947 -18.4462 -0.7095 -8.9866 9.4596 -23.649 6.8582 -23.649 -4.2568 0 -2.6014 10.8785 -15.6083 24.8314 -30.0342 13.7164 -13.9529 24.8314 -27.4328 24.8314 -29.7977 0 -2.1284 -7.3312 -11.3515 -16.0813 -20.3381 -12.061 -11.8245 -17.9732 -16.0813 -22.703 -16.0813 -9.4596 0 -10.4055 6.1487 -1.8919 14.8988 17.2637 17.7367 14.8988 28.6152 -11.3515 54.8656 -11.588 11.588 -18.9192 20.8111 -18.9192 23.8855 0 6.1487 33.1085 38.7843 39.7303 38.7843 2.3649 0 9.4596 -5.2028 15.6083 -11.8245z m-120.1367 -11.3515 c11.588 -8.5136 29.3247 -27.6693 29.3247 -31.9261 0 -1.6554 -4.9663 -7.8042 -10.8785 -13.4799 -17.0273 -16.3178 -24.5949 -27.9058 -24.5949 -37.1289 0 -11.115 2.8379 -15.8448 20.3381 -34.291 8.2771 -8.5136 15.1353 -16.7908 15.1353 -18.4462 0 -1.6554 -7.5677 -10.642 -17.0273 -20.3381 -17.2637 -17.9732 -24.3584 -21.0476 -30.2707 -13.9529 -2.3649 3.0744 -1.8919 4.4933 3.3109 8.5136 7.5677 5.9122 13.2434 16.3178 13.2434 24.5949 0 9.6961 -5.6758 18.2097 -23.4125 35.0005 -15.3718 14.4259 -20.5746 22.9395 -14.4259 22.9395 3.0744 0 42.0951 37.3654 45.406 43.2776 3.0744 5.9122 -3.5473 15.8448 -10.4055 15.8448 -2.8379 0 -8.2771 -2.8379 -11.8245 -6.3852 -5.6758 -5.4393 -7.5677 -5.9122 -13.2434 -4.0203 -7.0947 2.6014 -9.4596 9.6961 -5.2028 17.5002 2.6014 4.7298 20.3381 18.9192 23.649 18.9192 0.946 0 5.9122 -3.0744 10.8785 -6.6217z"/><path d="M80.4065 456.425 c11.3515 -10.1691 18.9192 -13.2434 25.3044 -10.642 3.3109 1.1824 1.6554 2.8379 -7.5677 7.5677 -6.3852 3.3109 -15.6083 7.5677 -20.1016 9.4596 l-8.2771 3.3109 10.642 -9.6961z"/><path d="M943.1205 463.5196 c-10.4055 -3.0744 -30.2707 -14.6624 -28.8517 -16.7908 2.8379 -4.7298 12.7704 -1.6554 24.3584 7.5677 9.9326 8.0406 14.4259 12.5339 11.588 11.3515 -0.473 0 -3.5473 -0.946 -7.0947 -2.1284z"/></g></svg>